# xmcd CD database file
#
# Track frame offsets:
#	150
#	17720
#	34912
#	52225
#	62940
#	79132
#	94175
#	122567
#	140677
#	158297
#	176880
#	191090
#	202257
#	216755
#	237172
#	252925
#
# Disc length: 3629 seconds
#
# Revision: 0
# Processed by: cddbd v1.5.1PL0 Copyright (c) Steve Scherf et al.
# Submitted via: CDex 1.51
#
DISCID=ed0e2b10
DTITLE=Pam Pameijer's New Jazz Wizards - Good Stuff, Hot and ready
DYEAR=1992
DGENRE=Jazz
TTITLE0=Good Stuff
TTITLE1=Hot and Ready
TTITLE2=Gravier Street Blues
TTITLE3=New Orleans Hop Scop Blues
TTITLE4=Novelty Blues
TTITLE5=29th And Dearborn
TTITLE6=Trouble In Mind
TTITLE7=Spanish Shawl
TTITLE8=Who'sit
TTITLE9=Jazzin' Babies' Blues
TTITLE10=Hollywood Shuffle
TTITLE11=I Ain't Gonna Tell Nobody 'Bout The Dream I Had Last Night
TTITLE12=Bring It On Home To Grandma
TTITLE13=All Night Shags
TTITLE14=Baby O' Mine
TTITLE15=Sweet Mumtaz
EXTD=YEAR: 1992
EXTT0=
EXTT1=
EXTT2=
EXTT3=
EXTT4=
EXTT5=
EXTT6=
EXTT7=
EXTT8=
EXTT9=
EXTT10=
EXTT11=
EXTT12=
EXTT13=
EXTT14=
EXTT15=
PLAYORDER=
